<svg viewBox="0 0 252.9143 139.3442" width="5000px" height="2754.770862031185px" xmlns="http://www.w3.org/2000/svg" xmlns:xlink="http://www.w3.org/1999/xlink" preserveAspectRatio="none"><defs></defs><style>.aD6z1nYkhcolor {fill:#878787;fill-opacity:1;}.aIptOCySncolors-0 {fill:#878787;fill-opacity:1;}</style><g opacity="1" transform="rotate(0 0 64.6721)">
        <svg width="252.9143" height="74.6721" x="0" y="64.6721" version="1.1" preserveAspectRatio="none" viewBox="1.12 -31.4 135.48 40">
          <g transform="matrix(1 0 0 1 0 0)" class="aD6z1nYkhcolor"><path d="M10.04 0.48Q5.64 0.48 1.12-0.88L1.12-0.88Q1.32-4.84 1.76-8.24L1.76-8.24L4.84-8.84L6.84-5.44Q9.24-4.60 11.08-4.60L11.08-4.60Q11.72-4.60 13.80-4.96L13.80-4.96Q13.88-5.76 13.88-6.04L13.88-6.04Q13.88-7 13.56-7.50Q13.24-8 12.16-8.62Q11.08-9.24 8.28-10.48L8.28-10.48Q4.84-12.16 3.32-14.10Q1.80-16.04 1.80-18.68L1.80-18.68Q1.80-22.80 4.60-25.12Q7.40-27.44 12.28-27.44L12.28-27.44Q14.64-27.44 16.98-26.98Q19.32-26.52 21.08-25.72L21.08-25.72Q21-23.48 20.72-20.16L20.72-20.16L20.60-18.44L17.68-18L14.64-21.88Q13.20-22.32 11.04-22.32L11.04-22.32Q9.68-22.32 9-22.08L9-22.08Q8.80-21.28 8.80-20.84L8.80-20.84Q8.80-19.96 9.24-19.30Q9.68-18.64 10.80-17.94Q11.92-17.24 14.12-16.20L14.12-16.20Q17.32-14.68 18.96-13.52Q20.60-12.36 21.26-11.10Q21.92-9.84 21.92-8.04L21.92-8.04Q21.92-4.08 18.76-1.80Q15.60 0.48 10.04 0.48L10.04 0.48Z M23.68 0L23.48-3.80L25.96-4.52L25.96-23.68Q25.96-24.56 25.84-24.82Q25.72-25.08 25.20-25.40L25.20-25.40L23.44-26.32L23.56-29.36L24.80-29.56Q30.08-30.52 32.20-30.60L32.20-30.60Q32.56-29.64 32.72-28.52L32.72-28.52L32.72-19.40Q34.92-20.40 36.46-20.86Q38-21.32 39.52-21.32L39.52-21.32Q45.76-21.32 45.76-13.72L45.76-13.72L45.76-5.84Q45.76-5 45.88-4.72Q46-4.44 46.56-4.12L46.56-4.12L48.48-3L48.32 0L37.28 0L37.08-3.80L39.04-4.36L39.04-11.96Q39.04-13.72 38.94-14.46Q38.84-15.20 38.28-15.60Q37.72-16 36.40-16L36.40-16Q35.12-16 32.72-15.56L32.72-15.56L32.72-5.84Q32.72-5 32.84-4.72Q32.96-4.44 33.48-4.12L33.48-4.12L35.44-3L35.28 0L23.68 0Z M59.52 0.52Q54.44 0.52 51.94-2.08Q49.44-4.68 49.44-10.04L49.44-10.04Q49.44-13.48 50.70-16.04Q51.96-18.60 54.32-19.96Q56.68-21.32 59.88-21.32L59.88-21.32Q70.24-21.32 70.24-10.60L70.24-10.60Q70.24-5.36 67.42-2.42Q64.60 0.52 59.52 0.52L59.52 0.52ZM60.16-4.16Q60.96-4.16 61.56-4.30Q62.16-4.44 62.84-4.76L62.84-4.76Q63.08-5.68 63.24-7.12Q63.40-8.56 63.40-9.88L63.40-9.88Q63.40-13.12 62.38-14.80Q61.36-16.48 59.36-16.48L59.36-16.48Q58.04-16.48 56.68-16.12L56.68-16.12Q56.40-15.52 56.24-14.18Q56.08-12.84 56.08-11.12L56.08-11.12Q56.08-7.76 57.14-5.96Q58.20-4.16 60.16-4.16L60.16-4.16Z M71.96 8.60L71.76 4.80L74.24 4.12L74.24-14.24Q74.24-15.12 74.12-15.38Q74-15.64 73.44-15.96L73.44-15.96L71.64-16.92L71.84-19.92Q72.04-19.96 72.24-20Q72.44-20.04 72.68-20.08L72.68-20.08Q74.56-20.44 76.66-20.78Q78.76-21.12 80.12-21.20L80.12-21.20Q80.48-20.36 80.60-19.28L80.60-19.28Q81.84-20.28 83.26-20.80Q84.68-21.32 86.08-21.32L86.08-21.32Q90.08-21.32 92.22-18.50Q94.36-15.68 94.36-10.48L94.36-10.48Q94.36-5.08 91.40-2.22Q88.44 0.64 82.84 0.64L82.84 0.64Q82.24 0.64 80.96 0.56L80.96 0.56L80.96 2.76Q80.96 3.64 81.08 3.92Q81.20 4.20 81.76 4.48L81.76 4.48L84.12 5.80L83.96 8.60L71.96 8.60ZM83.88-4.32Q85.76-4.32 86.92-4.84L86.92-4.84Q87.24-5.84 87.46-7.26Q87.68-8.68 87.68-9.92L87.68-9.92Q87.68-13 86.62-14.68Q85.56-16.36 83.68-16.36L83.68-16.36Q82.52-16.36 80.96-15.68L80.96-15.68L80.96-4.80Q82.12-4.32 83.88-4.32L83.88-4.32Z M99.52-23.48L97.84-29.60L104.64-31.40L106.28-25.32L99.52-23.48ZM96.28 0L96.16-3.68L98.96-4.52L98.96-14.24Q98.96-15.12 98.82-15.38Q98.68-15.64 98.12-15.96L98.12-15.96L96.36-16.92L96.56-19.92Q99.88-20.56 101.70-20.86Q103.52-21.16 105.04-21.20L105.04-21.20Q105.56-19.48 105.68-18.64L105.68-18.64L105.68-5.84Q105.68-5 105.80-4.72Q105.92-4.44 106.48-4.12L106.48-4.12L108.44-3L108.28 0L96.28 0Z M110.32 0L110.12-4.20L112.64-4.88L112.64-20.20Q112.64-21.24 112.50-21.58Q112.36-21.92 111.72-22.20L111.72-22.20L110.04-23.16L110.16-26.96L122.64-26.96L122.84-22.88L119.88-22.08L119.88-14.56L126.88-22.12Q127.04-22.28 127.04-22.56L127.04-22.56Q127.04-22.76 126.92-22.92L126.92-22.92L125.76-24.32L126.20-26.96L135.48-26.96L135.96-24.24L126.80-14.44L136.60-1.80L136.60 0L128.96 0L119.88-12.04L119.88-6.48Q119.88-5.60 120.02-5.28Q120.16-4.96 120.76-4.64L120.76-4.64L122.88-3.44L122.72 0L110.32 0Z"></path></g>
        </svg>
      </g><g opacity="1" transform="rotate(0 80.81279999999998 0)">
        <svg width="85.6883" height="74.6721" x="80.81279999999998" y="0" version="1.1" preserveAspectRatio="none" viewBox="5.394006729125977 35.23899841308594 501.6061096191406 437.1190185546875">
          <g transform="matrix(1 0 0 1 0 0)" class="aIptOCySncolors-0"><g><path d="M499.872,193.899l-129.603-83.635c1.73-5.476,2.669-11.304,2.669-17.344   c0-31.803-25.875-57.678-57.678-57.678s-57.674,25.873-57.674,57.676s25.875,57.678,57.678,57.678   c14.502,0,27.761-5.392,37.906-14.261l85.884,55.422H73.349l85.682-55.292c10.125,8.791,23.324,14.13,37.755,14.13   c31.803,0,57.678-25.875,57.678-57.678s-25.875-57.678-57.678-57.678S139.11,61.115,139.11,92.918c0,6.111,0.963,12,2.733,17.533   L12.53,193.899c-6.314,4.075-8.699,11.943-6.1,18.69l30.586,206.452c0.663,29.513,24.877,53.317,54.547,53.317H420.49   c29.67,0,53.885-23.804,54.547-53.319l30.409-205.269C508.831,206.783,506.559,198.214,499.872,193.899z M307.161,106.644   l17.229,11.118c-2.851,1.051-5.918,1.654-9.129,1.654c-14.612,0-26.5-11.887-26.5-26.5s11.887-26.5,26.5-26.5   c14.245,0,25.867,11.307,26.444,25.412l-17.639-11.383c-7.233-4.667-16.881-2.588-21.552,4.646   C297.847,92.327,299.928,101.977,307.161,106.644z M196.786,66.42c14.612,0,26.5,11.887,26.5,26.5s-11.887,26.5-26.5,26.5   c-3.127,0-6.116-0.572-8.903-1.571l17.358-11.201c7.233-4.669,9.314-14.317,4.645-21.552c-4.669-7.235-14.318-9.314-21.552-4.646   L170.33,92.069C170.784,77.851,182.462,66.42,196.786,66.42z M444.041,415.511c-0.112,0.758-0.168,1.521-0.168,2.285   c0,12.894-10.49,23.383-23.383,23.383H91.563c-12.894,0-23.383-10.49-23.383-23.383c0-0.764-0.056-1.528-0.168-2.285   l-28.53-192.576h433.089L444.041,415.511z"></path><path d="M70.991,312.487l45.292,45.292l-27.949,27.949c-6.087,6.087-6.087,15.958,0,22.047   c3.045,3.043,7.034,4.566,11.023,4.566s7.98-1.523,11.023-4.566l38.972-38.972l43.538-43.538l32.514,32.514l-27.949,27.949   c-6.087,6.087-6.087,15.958,0,22.047c3.045,3.043,7.034,4.566,11.023,4.566s7.98-1.523,11.023-4.566l27.17-27.17l27.17,27.17   c3.045,3.043,7.034,4.566,11.023,4.566s7.98-1.523,11.023-4.566c6.087-6.087,6.087-15.958,0-22.047l-27.167-27.17l33.293-33.293   l43.538,43.538l38.972,38.972c3.045,3.043,7.034,4.566,11.023,4.566s7.98-1.523,11.023-4.566c6.087-6.087,6.087-15.958,0-22.047   l-27.948-27.949l32.495-32.497c6.087-6.087,6.087-15.958,0-22.047c-6.087-6.086-15.958-6.086-22.046,0l-32.497,32.497   l-32.514-32.514l43.538-43.538c6.087-6.087,6.087-15.958,0-22.047s-15.958-6.087-22.047,0l-43.538,43.538l-43.538-43.538   c-6.087-6.087-15.958-6.087-22.047,0c-6.089,6.087-6.087,15.958,0,22.047l43.538,43.538l-32.514,32.514l-43.538-43.538   l-1.754-1.754l-53.587-53.587c-6.087-6.087-15.958-6.087-22.047,0s-6.087,15.958,0,22.047l44.318,44.318l-32.514,32.514   L93.037,290.44c-6.087-6.086-15.958-6.086-22.047,0C64.902,296.529,64.902,306.399,70.991,312.487z"></path></g></g>
        </svg>
      </g></svg>